<svg xmlns="http://www.w3.org/2000/svg" width="43" height="54" viewBox="0 0 43 54" fill="none"><g opacity="0.2"><path d="M36.9578 35.2792L33.7886 34.3486L26.8935 29.845V28.8131C28.8898 27.3073 30.2607 25.0057 30.5155 22.3674C31.5167 22.2062 32.2838 21.3362 32.2838 20.2904V17.4528C32.2838 17.4418 32.2826 17.431 32.2821 17.4201V13.8255C32.681 13.5399 32.9341 13.0747 32.9341 12.5528V9.26324L37.6925 8.45271C38.4746 8.3195 39.0369 7.6984 39.0922 6.90707C39.1472 6.11573 38.6765 5.42259 37.9206 5.18223L21.8792 0.0798662C21.5444 -0.0266572 21.1909 -0.0265518 20.8563 0.0797607L4.81465 5.18223C4.05875 5.42259 3.58794 6.11573 3.6431 6.90696C3.67812 7.40973 3.91837 7.84321 4.2892 8.12713V12.4289H4.24997C3.34663 12.4289 2.61172 13.1638 2.61172 14.0671V16.2024L1.55419 22.4095C1.37141 23.4831 2.19828 24.4657 3.28988 24.4657H6.87044C7.95962 24.4657 8.78934 23.4854 8.60614 22.4094L7.5486 16.2024V14.0671C7.5486 13.1638 6.8137 12.4289 5.91036 12.4289H5.87123V8.59372L9.80458 9.26366V12.5528C9.80458 13.0724 10.0565 13.5369 10.4535 13.823L10.455 17.4531V20.2904C10.455 21.3363 11.2221 22.2062 12.2233 22.3674C12.478 25.0042 13.8474 27.3048 15.8418 28.8107V29.8475L8.94817 34.3502L5.78148 35.2797C2.39287 36.2743 0.000210822 39.3853 0.000210822 43.0016V45.3591C0.000210822 45.7959 0.354269 46.1501 0.791226 46.1501C1.22818 46.1501 1.58224 45.796 1.58224 45.3591V43.0016C1.58224 40.1514 3.49217 37.6002 6.22708 36.7976L9.17767 35.9315L20.9655 42.936C21.2048 43.0782 21.5214 43.0858 21.7736 42.936L33.5621 35.9311L36.5124 36.7972C39.2469 37.6 41.1568 40.1511 41.1568 43.0011V50.641C41.1568 51.6209 40.3596 52.4182 39.3797 52.4182H35.8932V49.0086C35.8932 48.5717 35.5392 48.2176 35.1022 48.2176C34.6653 48.2176 34.3112 48.5716 34.3112 49.0086V52.4182H8.4241V49.0086C8.4241 48.5717 8.07004 48.2176 7.63309 48.2176C7.19613 48.2176 6.84207 48.5716 6.84207 49.0086V52.4182H3.35918C2.37927 52.4182 1.58203 51.6209 1.58203 50.641V49.0567C1.58203 48.6198 1.22797 48.2657 0.791015 48.2657C0.354058 48.2657 0 48.6197 0 49.0567V50.6409C0 52.4932 1.50683 54 3.35907 54H39.3795C41.2317 54 42.7386 52.4932 42.7386 50.6409V43.001C42.7386 39.4699 40.4275 36.2979 36.9578 35.2792V35.2792ZM6.87034 22.8837H3.28988C3.17925 22.8837 3.09487 22.7849 3.11365 22.6751L4.07025 17.0603H6.08997L7.04657 22.675C7.06524 22.7845 6.9815 22.8837 6.87034 22.8837V22.8837ZM5.96657 14.0671V15.4784H4.19354V14.0671C4.19354 14.036 4.21875 14.0108 4.24986 14.0108H5.91015C5.94137 14.0107 5.96657 14.036 5.96657 14.0671V14.0671ZM18.5403 39.3579L18.8552 39.8418L10.7795 35.0433L15.9054 31.6952C16.1379 34.4226 17.0369 37.0472 18.5403 39.3579ZM18.5349 35.9433C20.3967 36.2079 22.3409 36.2081 24.2038 35.9433C23.8438 36.8291 23.4002 37.6838 22.8724 38.4953L21.3693 40.8054L19.8663 38.4953C19.3384 37.6838 18.8948 36.8291 18.5349 35.9433V35.9433ZM24.1983 39.3579C25.7018 37.0472 26.6008 34.4226 26.8331 31.6952L31.959 35.0432L23.8835 39.8418L24.1983 39.3579ZM28.8253 14.1201H30.7001V16.6617H29.7696C29.2489 16.6617 28.8252 16.2381 28.8252 15.7174V14.1201H28.8253ZM5.29411 6.6898L21.336 1.58722C21.3566 1.58069 21.3787 1.58058 21.3996 1.58733L37.4414 6.6898C37.4745 6.70035 37.52 6.71469 37.5142 6.79706C37.5084 6.87933 37.4614 6.88724 37.427 6.89314L32.1232 7.79648L30.132 7.55021C29.6987 7.49653 29.3036 7.80471 29.2499 8.23819C29.1964 8.67177 29.5044 9.06664 29.9379 9.12022L31.3523 9.29519V12.5381L11.3865 12.5374V9.29509L19.5716 8.28227C20.7638 8.13493 21.9725 8.13493 23.1639 8.28227L26.2618 8.66544C26.6953 8.71912 27.0903 8.41105 27.144 7.97757C27.1976 7.54399 26.8896 7.14912 26.4561 7.09543L23.3582 6.71227C22.038 6.54889 20.6985 6.54889 19.3774 6.71227L10.6136 7.79669L5.30824 6.89314C5.27386 6.88724 5.22692 6.87933 5.22112 6.79706C5.21543 6.71469 5.26088 6.70024 5.29411 6.6898V6.6898ZM12.0365 16.6617L12.0355 14.1201H13.9133V15.7175C13.9133 16.2381 13.4898 16.6618 12.969 16.6618H12.0365V16.6617ZM13.7775 21.9608C13.7368 21.3167 13.2014 20.8122 12.5588 20.8122C12.271 20.8122 12.0368 20.578 12.0368 20.2903V18.2437H12.969C14.3619 18.2437 15.4952 17.1104 15.4952 15.7175V14.1201H27.2433V15.7175C27.2433 17.1104 28.3767 18.2437 29.7696 18.2437H30.7017V20.2903C30.7017 20.578 30.4676 20.8122 30.1798 20.8122C29.5371 20.8122 29.0018 21.3167 28.9611 21.9609C28.7091 25.9549 25.3744 29.0837 21.3692 29.0837C17.364 29.0837 14.0294 25.9549 13.7775 21.9608V21.9608ZM21.3693 30.6656C22.7762 30.6656 24.1133 30.3439 25.3115 29.7719V30.2732C25.3115 31.6257 25.1291 32.9597 24.7778 34.2465C22.6281 34.6563 20.1978 34.6729 17.9609 34.2465C17.6096 32.9598 17.4271 31.6258 17.4271 30.2732C17.4271 30.2565 17.4248 30.2401 17.4237 30.2236C17.4235 30.2203 17.4238 30.217 17.4236 30.2137V29.7704C18.6227 30.3433 19.9611 30.6656 21.3693 30.6656V30.6656Z" fill="black"></path></g></svg>