<svg xmlns="http://www.w3.org/2000/svg" width="108" height="81" viewBox="0 0 108 81" fill="none"><path d="M24.5058 32.0888C23.3072 32.0888 22.157 32.2715 21.0121 32.4381C21.383 31.1911 21.7646 29.9226 22.3773 28.7831C22.9901 27.1276 23.9468 25.6925 24.8982 24.2466C25.6937 22.6825 27.0966 21.6236 28.1286 20.2852C29.209 18.9845 30.6817 18.1191 31.8481 17.0387C32.993 15.91 34.4926 15.3456 35.6858 14.5501C36.9328 13.8352 38.0186 13.0451 39.1796 12.6689L42.0767 11.4756L44.6245 10.4167L42.0176 0L38.8087 0.773998C37.7821 1.032 36.5297 1.333 35.1053 1.69312C33.6487 1.96187 32.0953 2.69825 30.3646 3.37012C28.6553 4.13337 26.6773 4.64937 24.8391 5.87488C22.9901 7.04663 20.8562 8.02487 18.975 9.59437C17.1528 11.2122 14.9545 12.6151 13.3312 14.6738C11.5575 16.598 9.80522 18.619 8.44535 20.9195C6.87047 23.1125 5.80085 25.5205 4.6721 27.9016C3.65085 30.2827 2.82847 32.7176 2.1566 35.0826C0.882722 39.8234 0.312972 44.3276 0.0925965 48.1815C-0.0901535 52.0408 0.0173465 55.2496 0.243096 57.5716C0.323721 58.6681 0.474222 59.7324 0.581722 60.4688L0.716096 61.3717L0.855846 61.3395C1.81185 65.8052 4.0126 69.909 7.20353 73.1762C10.3944 76.4434 14.4451 78.7405 18.887 79.8017C23.3289 80.8629 27.9805 80.6449 32.3036 79.1729C36.6268 77.7008 40.4449 75.035 43.3162 71.4837C46.1876 67.9323 47.9948 63.6407 48.529 59.1051C49.0631 54.5695 48.3022 49.9754 46.3344 45.8542C44.3666 41.733 41.2723 38.2531 37.4094 35.8171C33.5464 33.3811 29.0727 32.0884 24.5058 32.0888ZM83.6308 32.0888C82.4322 32.0888 81.282 32.2715 80.1371 32.4381C80.508 31.1911 80.8896 29.9226 81.5023 28.7831C82.1151 27.1276 83.0718 25.6925 84.0232 24.2466C84.8187 22.6825 86.2216 21.6236 87.2536 20.2852C88.334 18.9845 89.8067 18.1191 90.9731 17.0387C92.118 15.91 93.6176 15.3456 94.8108 14.5501C96.0578 13.8352 97.1436 13.0451 98.3046 12.6689L101.202 11.4756L103.749 10.4167L101.143 0L97.9337 0.773998C96.9071 1.032 95.6547 1.333 94.2303 1.69312C92.7737 1.96187 91.2203 2.69825 89.4896 3.37012C87.7857 4.13875 85.8023 4.64937 83.9641 5.88025C82.1151 7.052 79.9812 8.03025 78.1 9.59975C76.2778 11.2176 74.0795 12.6205 72.4562 14.6738C70.6825 16.598 68.9302 18.619 67.5703 20.9195C65.9955 23.1125 64.9258 25.5205 63.7971 27.9016C62.7758 30.2827 61.9535 32.7176 61.2816 35.0826C60.0077 39.8234 59.438 44.3276 59.2176 48.1815C59.0348 52.0408 59.1423 55.2496 59.3681 57.5716C59.4487 58.6681 59.5992 59.7324 59.7067 60.4688L59.8411 61.3717L59.9808 61.3395C60.9369 65.8052 63.1376 69.909 66.3285 73.1762C69.5194 76.4434 73.5701 78.7405 78.012 79.8017C82.4539 80.8629 87.1055 80.6449 91.4286 79.1729C95.7518 77.7008 99.5699 75.035 102.441 71.4837C105.313 67.9323 107.12 63.6407 107.654 59.1051C108.188 54.5695 107.427 49.9754 105.459 45.8542C103.492 41.733 100.397 38.2531 96.5343 35.8171C92.6714 33.3811 88.1977 32.0884 83.6308 32.0888Z" fill="#F0F0F0"></path></svg>