<svg xmlns="http://www.w3.org/2000/svg" width="55" height="54" viewBox="0 0 55 54" fill="none"><g opacity="0.2"><path d="M53.7736 38.2035L45.9275 30.2499L51.565 24.4121C53.1903 22.7277 53.1418 20.035 51.4585 18.4097C50.717 17.6936 49.7804 17.3023 48.8248 17.2316C49.3438 16.4996 49.6159 15.6242 49.6001 14.7087C49.58 13.5749 49.1202 12.517 48.3038 11.7292C47.4959 10.9497 46.457 10.5542 45.4139 10.5405C45.6734 9.97201 45.8041 9.34867 45.7925 8.70635C45.7725 7.57253 45.3126 6.5136 44.4974 5.72678C43.1515 4.42737 41.1634 4.19639 39.5887 5.01379C39.5286 3.94221 39.0751 2.94866 38.2988 2.19876C37.4582 1.38769 36.3012 0.949981 35.1231 0.997443C34.2118 1.03541 33.3743 1.35288 32.7088 1.90555L29.2609 0.278128C28.1514 -0.24501 26.8214 -0.016137 25.9502 0.846619L22.6743 4.09408L21.706 3.09105C20.0797 1.40773 17.387 1.36027 15.7026 2.98663C14.9263 3.73654 14.4728 4.73113 14.4137 5.80272C12.839 4.98426 10.8499 5.21419 9.50404 6.5136C8.68875 7.30147 8.22889 8.35935 8.20885 9.49317C8.19725 10.1365 8.32909 10.7599 8.58855 11.3284C7.54544 11.3431 6.50549 11.7365 5.69758 12.517C4.88123 13.3049 4.42137 14.3628 4.40133 15.4966C4.38551 16.411 4.65763 17.2864 5.1776 18.0195C4.22203 18.0901 3.28439 18.4814 2.54293 19.1976C0.859604 20.8229 0.811087 23.5156 2.4364 25.2L6.42639 29.3313C6.99277 29.9177 7.68888 30.3048 8.42612 30.4925C8.21096 30.7731 7.9842 31.0431 7.76904 31.2625L0.255252 38.1772C-0.0664356 38.4735 -0.0864752 38.9735 0.208845 39.2952C0.364943 39.465 0.577995 39.5504 0.791047 39.5504C0.983005 39.5504 1.17496 39.4808 1.32684 39.3416L8.85539 32.4132C8.86488 32.4037 8.87438 32.3952 8.88387 32.3857C9.41861 31.8415 9.96601 31.1 10.3341 30.5389C11.0988 30.3828 11.8286 30.0168 12.4309 29.4357C13.2472 28.6478 13.7071 27.5889 13.7271 26.4551C13.7313 26.1977 13.7124 25.9446 13.6723 25.6957C13.9085 25.7368 14.1479 25.7579 14.3874 25.7579C15.4495 25.7579 16.5137 25.3624 17.3363 24.5682C18.1516 23.7803 18.6126 22.7224 18.6315 21.5886C18.6358 21.3714 18.6231 21.1562 18.5946 20.9453C18.8678 20.999 19.1452 21.0265 19.4226 21.0265C20.4847 21.0265 21.5489 20.6309 22.3716 19.8367C23.1868 19.0489 23.6478 17.991 23.6678 16.8572C23.671 16.6199 23.6551 16.3857 23.6214 16.1558C23.8766 16.2033 24.134 16.2275 24.3934 16.2275C25.4555 16.2275 26.5187 15.832 27.3414 15.0378C28.1577 14.2499 28.6176 13.192 28.6376 12.0582C28.6545 11.051 28.3223 10.0922 27.6958 9.31808C27.8413 9.19679 27.9816 9.06812 28.1155 8.92889C28.1493 8.89303 33.4313 3.40747 33.4587 3.37582C33.8859 2.8896 34.4997 2.60694 35.1874 2.57846C35.9362 2.54893 36.6693 2.82421 37.1998 3.3368C37.7113 3.83146 38.0003 4.49488 38.013 5.20681C38.0246 5.91768 37.7598 6.59165 37.2652 7.10318C37.2156 7.15908 36.2674 8.12626 36.2537 8.16212C36.0037 8.50384 36.067 8.98163 36.3982 9.24636C36.7167 9.5016 37.1776 9.47207 37.4614 9.17886L39.632 6.93021C40.6519 5.87444 42.3415 5.84386 43.3983 6.86482C43.9099 7.35842 44.1989 8.0229 44.2105 8.73377C44.2231 9.44465 43.9584 10.1186 43.4627 10.6323C42.832 11.2904 41.656 12.5033 41.0252 13.171C40.944 13.2553 40.886 13.3534 40.8502 13.4568C40.7436 13.7605 40.8322 14.1107 41.0927 14.3269C41.4176 14.5948 41.8954 14.5621 42.1801 14.252L43.5523 12.8229C44.5807 11.8758 46.187 11.8842 47.2048 12.8672C47.7174 13.3619 48.0053 14.0253 48.018 14.7372C48.0306 15.4481 47.7649 16.122 47.2713 16.6336C47.2713 16.6336 45.6333 18.3296 45.4698 18.4983C45.1471 18.8084 45.1555 19.3474 45.4867 19.6458C45.8505 19.9886 46.4053 19.8863 46.6901 19.5172C47.7184 18.5563 49.3364 18.5595 50.3595 19.5478C51.4163 20.5677 51.4458 22.2573 50.427 23.3131L40.7795 33.3033C40.6709 33.4151 40.558 33.529 40.4441 33.6387C40.1298 33.9425 40.1224 34.4435 40.4262 34.7578C40.5812 34.9181 40.7879 34.9983 40.9946 34.9983C41.1929 34.9983 41.3912 34.9244 41.5452 34.7757C41.6549 34.6861 44.6271 31.5926 44.8275 31.389L52.6471 39.3152C52.8022 39.4713 53.0057 39.5504 53.2103 39.5504C53.4107 39.5504 53.6122 39.4745 53.7662 39.3226C54.0773 39.0157 54.0805 38.5147 53.7736 38.2035V38.2035ZM11.3319 28.2977C10.275 29.3176 8.58433 29.2891 7.56442 28.2323L3.57444 24.101C2.55558 23.0441 2.58512 21.3555 3.64194 20.3356C4.69876 19.3147 6.38736 19.3442 7.40832 20.4C7.49692 20.4907 11.3118 24.4406 11.3973 24.5302C11.8919 25.0418 12.1577 25.7157 12.145 26.4277C12.1324 27.1385 11.8434 27.803 11.3319 28.2977V28.2977ZM16.2373 23.4302C15.1805 24.4501 13.4909 24.4205 12.471 23.3648C11.2359 22.0865 7.9167 18.6491 6.73014 17.4204C6.23654 16.9089 5.97075 16.2349 5.98341 15.524C5.99606 14.8131 6.284 14.1487 6.79659 13.6551C7.85236 12.6352 9.54096 12.6636 10.5609 13.7194L16.3038 19.6659C16.7974 20.1774 17.0621 20.8503 17.0505 21.5612C17.0379 22.2721 16.7489 22.9355 16.2373 23.4302V23.4302ZM26.2424 13.8998C25.1855 14.9197 23.4969 14.8901 22.476 13.8344L20.8528 12.1532C20.549 11.8389 20.048 11.8294 19.7337 12.1331C19.4205 12.4369 19.411 12.9379 19.7147 13.2522L21.3379 14.9334C21.8326 15.4449 22.0984 16.1178 22.0857 16.8298C22.0731 17.5406 21.7841 18.2051 21.2725 18.6987C20.2157 19.7186 18.5261 19.6891 17.5062 18.6333C17.4281 18.5521 10.6157 11.4982 10.5377 11.417C10.043 10.9054 9.77827 10.2325 9.79092 9.52059C9.80253 8.80971 10.0915 8.1463 10.6031 7.65164C11.6599 6.63173 13.3495 6.66126 14.3694 7.71703C15.0497 8.42158 16.4789 9.90134 17.1655 10.6122C17.4692 10.9265 17.9702 10.936 18.2845 10.6323C18.5988 10.3285 18.6073 9.82751 18.3035 9.51321L16.7362 7.89C16.2532 7.39007 15.9884 6.73509 15.9884 6.04214V5.99362C16.0011 5.28275 16.2901 4.61828 16.8016 4.12467C17.8584 3.10476 19.547 3.13324 20.568 4.19006L21.5499 5.20681L20.8802 5.87128C20.0364 6.70661 20.0217 8.0809 20.8464 8.93522C21.8062 9.92982 23.0961 10.4772 24.4778 10.4772H24.482C25.1191 10.4762 25.7361 10.358 26.3099 10.1355C26.8024 10.647 27.0682 11.3199 27.0555 12.0308C27.0429 12.7417 26.7539 13.4062 26.2424 13.8998V13.8998ZM26.9754 7.83199C26.3172 8.5165 25.4313 8.89409 24.481 8.89514H24.4778C23.5296 8.89514 22.6437 8.51861 21.9845 7.83621C21.7577 7.60206 21.7619 7.22448 21.9929 6.9956L27.064 1.97094C27.3203 1.7157 27.6652 1.58176 28.0132 1.58176C28.2073 1.58176 28.4035 1.62289 28.5859 1.70938L31.5307 3.09843L26.9754 7.83199Z" fill="black"></path><path d="M38.7101 53.7818C38.5571 53.9273 38.3609 54.0001 38.1658 54.0001C37.9559 54.0001 37.7471 53.9178 37.5921 53.7544C37.5921 53.7544 27.3118 42.9309 27.3381 42.9899C27.2116 43.1133 27.0871 43.2388 26.9648 43.3665L17.1897 53.7512C17.0336 53.9168 16.8237 54.0001 16.6127 54.0001C16.4187 54.0001 16.2236 53.9284 16.0706 53.7849C15.7531 53.4854 15.7373 52.9855 16.0369 52.6669L25.8183 42.2759C28.1724 39.8247 31.1393 38.0433 34.4026 37.1194C35.5512 36.7945 36.6576 36.3252 37.6912 35.724C38.0677 35.5046 38.5529 35.6322 38.7723 36.0098C38.9917 36.3874 38.864 36.8726 38.4865 37.092C37.3389 37.7596 36.1102 38.2806 34.8329 38.6424C32.521 39.2963 30.3725 40.4228 28.5205 41.9342C28.6302 42.0428 38.7385 52.6638 38.7385 52.6638C39.0391 52.9802 39.0265 53.4812 38.7101 53.7818V53.7818Z" fill="black"></path></g></svg>