<svg xmlns="http://www.w3.org/2000/svg" width="70" height="54" viewBox="0 0 70 54" fill="none"><g opacity="0.2"><path d="M23.9145 47.5125C23.3512 47.5125 22.8945 47.9753 22.8945 48.5463V52.966C22.8945 53.5369 23.3512 53.9998 23.9145 53.9998C24.4778 53.9998 24.9345 53.5369 24.9345 52.966V48.5463C24.9345 47.9753 24.4778 47.5125 23.9145 47.5125Z" fill="black"></path><path d="M45.7187 47.5125C45.1554 47.5125 44.6987 47.9753 44.6987 48.5463V52.966C44.6987 53.5369 45.1554 53.9998 45.7187 53.9998C46.282 53.9998 46.7387 53.5369 46.7387 52.966V48.5463C46.7387 47.9753 46.282 47.5125 45.7187 47.5125Z" fill="black"></path><path d="M15.6489 25.5227C13.2803 24.3224 8.83938 24.3086 8.65142 24.3086C8.08823 24.3086 7.63167 24.7712 7.63154 25.3421C7.6314 25.9129 8.08783 26.3759 8.65115 26.3762C9.79874 26.3769 13.1288 26.5572 14.7366 27.372C14.883 27.4463 15.0386 27.4813 15.1919 27.4813C15.5661 27.4813 15.9263 27.2717 16.105 26.9096C16.357 26.3989 16.1528 25.778 15.6489 25.5227Z" fill="black"></path><path d="M5.38083 45.3026C4.81751 45.3026 4.36081 45.7655 4.36081 46.3364V52.9661C4.36081 53.537 4.81751 53.9999 5.38083 53.9999C5.94415 53.9999 6.40084 53.537 6.40084 52.9661V46.3364C6.40084 45.7656 5.94428 45.3026 5.38083 45.3026Z" fill="black"></path><path d="M67.2613 41.4418L63.1306 39.3488C63.1067 39.3367 63.0918 39.3122 63.0918 39.2851L63.092 37.181C64.7877 35.9977 65.9879 34.1269 66.2882 31.9314C67.0509 30.5956 67.4528 29.0868 67.4528 27.5526C67.4528 24.6917 66.0936 22.1469 63.9958 20.5455C64.1187 20.1305 64.1822 19.7023 64.1822 19.2655C64.1822 16.563 61.7683 14.3643 58.8014 14.3643C55.8345 14.3643 53.4206 16.563 53.4206 19.2655C53.4206 19.7029 53.4835 20.1311 53.6064 20.5459C52.3556 21.5009 51.3693 22.7922 50.7755 24.285C50.5227 21.7668 50.2594 18.7898 50.0068 15.322C49.6736 10.7466 48.05 6.88264 45.3118 4.14816C42.5943 1.43436 38.9651 0 34.8166 0C30.6681 0 27.0389 1.43436 24.3217 4.14802C21.5834 6.88264 19.9598 10.7466 19.6266 15.3219C19.5381 16.5367 19.4483 17.6881 19.3582 18.784H9.74171C6.17355 18.784 3.27058 21.7262 3.27058 25.3426V25.4042C3.27058 26.2464 3.46697 27.0899 3.83867 27.8432L4.36078 28.9016V30.5895C4.36078 33.2644 5.66137 35.6646 7.63136 37.1091V38.6021C7.63136 38.7936 7.50447 38.964 7.32291 39.0166L3.11187 40.2361C1.27965 40.7665 0 42.4859 0 44.4172V52.9662C0 53.5371 0.456696 54 1.02002 54C1.58334 54 2.04003 53.5371 2.04003 52.9662V44.4172C2.04003 43.4041 2.71134 42.5022 3.67234 42.2239L7.88351 41.0044C8.03543 40.9605 8.17972 40.9008 8.31709 40.8299L10.9021 43.4498V52.9662C10.9021 53.5371 11.3588 54 11.9221 54C12.4854 54 12.9421 53.5371 12.9421 52.9662V43.4498L15.5452 40.8116C15.8931 40.9846 16.2398 41.0852 16.4938 41.1588L17.5278 41.4582C16.1266 42.468 15.263 44.1151 15.263 45.9011V52.9659C15.263 53.5369 15.7197 53.9997 16.283 53.9997C16.8463 53.9997 17.303 53.5369 17.303 52.9659V45.9011C17.303 44.561 18.0846 43.3452 19.2942 42.8038L25.126 40.1932C26.9535 43.9024 30.6878 46.2652 34.8167 46.2652C38.961 46.2652 42.6828 43.9076 44.5092 40.1941L50.3392 42.8038C51.5488 43.3452 52.3304 44.561 52.3304 45.9011V52.9659C52.3304 53.5369 52.7871 53.9997 53.3505 53.9997C53.9138 53.9997 54.3705 53.5369 54.3705 52.9659V45.9011C54.3705 44.5786 53.8962 43.3328 53.0823 42.3644L54.6608 41.5645L55.8458 42.7058C56.6746 43.5042 57.7379 43.9031 58.8016 43.9031C59.8648 43.9031 60.9286 43.5039 61.7572 42.7058L62.942 41.5646L66.3491 43.2911C67.1166 43.6799 67.5933 44.4617 67.5933 45.3314V52.9661C67.5933 53.537 68.05 53.9999 68.6133 53.9999C69.1766 53.9999 69.6333 53.537 69.6333 52.9661V45.3314C69.6332 43.6737 68.7243 42.1832 67.2613 41.4418ZM58.8013 16.4318C60.6433 16.4318 62.1421 17.703 62.1421 19.2654C62.1421 19.3308 62.1369 19.3958 62.1317 19.4606C61.106 19.0253 59.981 18.784 58.8013 18.784C57.6217 18.784 56.4969 19.0253 55.4714 19.4604C55.4661 19.3956 55.4605 19.3308 55.4605 19.2654C55.4605 17.703 56.9593 16.4318 58.8013 16.4318ZM11.9222 41.5598L9.59796 39.2041C9.64597 39.01 9.67167 38.8081 9.67167 38.602V38.1659C10.3133 38.3794 10.9901 38.5061 11.6904 38.5273C11.7688 38.5298 11.8469 38.5309 11.9251 38.5309C12.6987 38.5309 13.4539 38.4125 14.1725 38.1866V38.6016C14.1725 38.8259 14.1952 39.0293 14.2356 39.2151L11.9222 41.5598ZM11.7516 36.4604C8.80112 36.3709 6.40081 33.7371 6.40081 30.5895V28.6575C6.40081 28.4971 6.36396 28.3387 6.2931 28.1952L5.66327 26.9185C5.43261 26.4507 5.31062 25.9272 5.31062 25.4042V25.3426C5.31062 22.8663 7.29843 20.8516 9.74171 20.8516H18.5337V25.1433C18.5337 25.8368 18.372 26.5313 18.0659 27.1516L17.5511 28.1951C17.4802 28.3387 17.4434 28.4969 17.4434 28.6574V30.8672C17.4434 32.3937 16.848 33.8201 15.7668 34.8834C14.6861 35.9461 13.2593 36.5067 11.7516 36.4604ZM20.2766 40.1038L17.0543 39.1707C16.2124 38.927 16.2126 38.8319 16.2126 38.6019L16.2128 37.1776C16.5554 36.937 16.8821 36.6678 17.1877 36.3672C17.3933 36.165 17.5848 35.9522 17.7644 35.7316C17.9282 36.0685 18.1794 36.3628 18.5041 36.5758C19.3217 37.1124 20.8647 38.0038 23.1337 38.8248L20.2766 40.1038ZM34.8166 44.1978C31.4979 44.1978 28.4922 42.3176 26.9933 39.3575L28.4781 38.6928C29.6368 38.1742 30.3855 37.0095 30.3855 35.7257V33.2451C31.756 33.8032 33.2515 34.111 34.8166 34.111C36.3817 34.111 37.8771 33.8032 39.2477 33.2451V35.7257C39.2477 37.0095 39.9964 38.1743 41.1551 38.6928L42.6396 39.3574C41.1418 42.3208 38.1477 44.1978 34.8166 44.1978ZM43.6614 37.5544L41.9793 36.8014C41.5592 36.6134 41.2877 36.191 41.2877 35.7256V32.1713C44.5657 30.0159 46.7388 26.2743 46.7388 22.0277V20.0892C46.7388 18.8294 46.2103 17.6409 45.2888 16.8288C43.2394 15.0222 38.6002 11.8697 30.5573 11.0545C29.9982 10.9977 29.4969 11.4121 29.4408 11.9804C29.3848 12.5486 29.7938 13.0551 30.3544 13.1119C37.8352 13.87 42.0835 16.7436 43.9501 18.389C44.426 18.8083 44.6988 19.4282 44.6988 20.0892V22.0277C44.6988 27.5503 40.2657 32.0433 34.8167 32.0433C29.3678 32.0433 24.9347 27.5503 24.9347 22.0277V21.1629C24.9347 20.7656 25.152 20.4017 25.5159 20.1893C26.7912 19.4451 28.473 18.0664 29.2432 15.7249C29.4214 15.1834 29.1325 14.5978 28.598 14.4173C28.0638 14.2367 27.4859 14.5295 27.3078 15.0712C26.7404 16.7964 25.4666 17.8322 24.498 18.3975C23.509 18.9747 22.8945 20.0344 22.8945 21.163V22.0278C22.8945 26.2745 25.0675 30.0161 28.3456 32.1715V35.7257C28.3456 36.1912 28.0741 36.6134 27.654 36.8015L25.9718 37.5546C22.6865 36.6637 20.5815 35.4759 19.6128 34.8404C19.5934 34.8277 19.5826 34.8132 19.588 34.7805C19.9438 32.649 20.858 26.5006 21.6612 15.4742C21.9574 11.4059 23.3725 7.99845 25.7535 5.62071C28.0812 3.29631 31.2151 2.0676 34.8166 2.0676C38.4181 2.0676 41.552 3.29631 43.8797 5.62071C46.2607 7.99845 47.6758 11.4057 47.9721 15.4741C48.7752 26.5001 49.6894 32.6487 50.0453 34.7804C50.0508 34.8132 50.0399 34.8277 50.0204 34.8404C49.0503 35.4768 46.9453 36.6638 43.6614 37.5544ZM54.5107 39.285C54.5107 39.3122 54.4959 39.3366 54.4719 39.3487L51.2761 40.9682C51.2382 40.9501 51.2018 40.9299 51.1634 40.9126L46.4997 38.825C48.7677 38.0043 50.3104 37.1133 51.1291 36.576C51.8325 36.1144 52.1967 35.2744 52.0568 34.4357C52.0492 34.3898 52.0409 34.3394 52.0327 34.2898C52.6064 35.459 53.4641 36.4507 54.5107 37.181V39.285ZM60.3514 41.2072C59.4823 42.0447 58.1203 42.0446 57.2509 41.2072L56.3028 40.2941C56.4627 39.9903 56.5506 39.6457 56.5506 39.285V38.1849C57.263 38.4089 58.0186 38.5307 58.8012 38.5307C59.5836 38.5307 60.3393 38.4089 61.0516 38.1849L61.0514 39.2847C61.0514 39.6457 61.1393 39.9903 61.2994 40.2943L60.3514 41.2072ZM58.8013 36.463C55.9771 36.463 53.6182 34.3196 53.3145 31.4772C53.2982 31.3249 53.2489 31.1782 53.1697 31.0475C52.5286 29.9893 52.1898 28.7808 52.1898 27.5523C52.1898 23.8577 55.1556 20.8516 58.8013 20.8516C62.4468 20.8516 65.4128 23.8577 65.4128 27.5525C65.4128 28.2647 65.2981 28.9701 65.0774 29.6436C62.1811 26.6615 57.086 25.4927 56.8404 25.4379C56.5388 25.3705 56.223 25.4454 55.982 25.6416C55.7411 25.8379 55.6009 26.1342 55.6009 26.4474C55.6009 26.4542 55.5544 27.1713 54.8095 27.9263C54.4111 28.33 54.4111 28.9846 54.8095 29.3882C55.2078 29.792 55.8537 29.792 56.2519 29.3882C56.8256 28.8068 57.1626 28.2167 57.3603 27.7184C59.0767 28.2352 62.639 29.5403 64.2377 31.831C63.784 34.4953 61.5068 36.463 58.8013 36.463Z" fill="black"></path><path d="M64.2524 46.6687C63.6891 46.6687 63.2324 47.1316 63.2324 47.7025V52.9662C63.2324 53.5371 63.6891 54 64.2524 54C64.8157 54 65.2724 53.5371 65.2724 52.9662V47.7025C65.2724 47.1316 64.8157 46.6687 64.2524 46.6687Z" fill="black"></path></g></svg>