<svg xmlns="http://www.w3.org/2000/svg" width="66" height="54" viewBox="0 0 66 54" fill="none"><path opacity="0.2" d="M65.3691 12.2681L44.4983 4.31382C43.9923 4.12103 43.4258 4.37473 43.2329 4.88011C43.0401 5.386 43.2939 5.95229 43.7999 6.14508L62.2683 13.1837L49.4834 18.0568L33.4043 10.7791C32.9109 10.5556 32.3303 10.7746 32.1072 11.2674C31.8837 11.7607 32.1027 12.3411 32.5957 12.5646L46.9027 19.0404L33 24.3389L3.73174 13.1837L33 2.02852L40.2127 4.77793C40.7178 4.97022 41.2847 4.71702 41.4781 4.21113C41.671 3.70575 41.4172 3.13946 40.9111 2.94667L33.3495 0.0643686C33.1244 -0.0212043 32.8756 -0.0217078 32.6505 0.0643686L0.630936 12.2681C0.251266 12.4131 0 12.7775 0 13.1837V17.6587C0 18.0649 0.251266 18.4293 0.630936 18.5743L10.6297 22.3848V25.7806C10.6297 26.3217 11.0683 26.7606 11.6096 26.7606C12.1514 26.7606 12.59 26.3217 12.59 25.7806V23.1323L32.6505 30.778C32.7633 30.8208 32.8817 30.8424 33 30.8424C33.1183 30.8424 33.2367 30.8208 33.3495 30.778L48.4708 25.0149V40.5228C43.7234 43.0139 38.4 44.3489 33 44.3489C25.6302 44.3489 18.4014 41.8653 12.59 37.3455V29.7003C12.59 29.1592 12.1514 28.7202 11.6096 28.7202C11.0683 28.7202 10.6297 29.1592 10.6297 29.7003V37.8202C10.6297 38.1177 10.7647 38.399 10.9968 38.5848C17.216 43.5656 25.0305 46.3085 33 46.3085C38.3748 46.3085 43.6781 45.0591 48.4708 42.719V46.685C46.8912 47.1164 45.7265 48.5626 45.7265 50.2766C45.7265 52.3293 47.3972 54 49.4507 54C51.5046 54 53.1753 52.3293 53.1753 50.2766C53.1753 48.5626 52.0107 47.1164 50.431 46.685V41.684C52.0288 40.7755 53.5595 39.7415 55.0037 38.5848C55.2358 38.399 55.3713 38.1177 55.3713 37.8202V22.3843L65.3691 18.5738C65.7487 18.4293 66 18.0649 66 17.6582V13.1837C66 12.7775 65.7487 12.4131 65.3691 12.2681V12.2681ZM51.2151 50.2766C51.2151 51.2486 50.4235 52.0399 49.4507 52.0399C48.4783 52.0399 47.6868 51.2486 47.6868 50.2766C47.6868 49.3041 48.4783 48.5128 49.4507 48.5128C50.4235 48.5128 51.2151 49.3041 51.2151 50.2766ZM1.96028 14.6062L32.0196 26.0629V28.4399L1.96028 16.9831V14.6062ZM33.9804 28.4399V26.0629L48.4708 20.54V22.9174L33.9804 28.4399ZM53.4105 37.345C52.4543 38.089 51.4588 38.7766 50.431 39.4078V24.2674L53.4105 23.1318V37.345ZM50.431 22.1699V19.793L64.0397 14.6062V16.9831L50.431 22.1699Z" fill="black"></path></svg>