<svg xmlns="http://www.w3.org/2000/svg" width="48" height="54" viewBox="0 0 48 54" fill="none"><g opacity="0.2"><path d="M23.544 36.4758C23.6366 36.5111 23.7317 36.5277 23.8253 36.5277C24.144 36.5277 24.4444 36.3337 24.5647 36.0181L25.3511 33.9534H30.5841L31.3625 36.0158C31.5167 36.4246 31.9731 36.631 32.3818 36.4766C32.7905 36.3224 32.9968 35.8659 32.8425 35.4572L28.9417 25.1209C28.9391 25.1136 28.9361 25.1063 28.9332 25.0992C28.7739 24.712 28.4006 24.4619 27.982 24.4619C27.9815 24.4619 27.9812 24.4619 27.9808 24.4619C27.5617 24.4623 27.1884 24.7132 27.0298 25.1012C27.0274 25.1072 27.025 25.1131 27.0227 25.1191L23.0862 35.455C22.9307 35.8633 23.1357 36.3203 23.544 36.4758ZM27.9794 27.0519L29.9869 32.3714H25.9534L27.9794 27.0519Z" fill="black"></path><path d="M15.9136 36.5275H20.3309C20.7679 36.5275 21.1219 36.1734 21.1219 35.7365C21.1219 35.2997 20.7679 34.9455 20.3309 34.9455H16.7046V31.2857H20.0052C20.4422 31.2857 20.7963 30.9316 20.7963 30.4947C20.7963 30.0579 20.4422 29.7037 20.0052 29.7037H16.7046V26.0439H20.3309C20.7679 26.0439 21.1219 25.6898 21.1219 25.2529C21.1219 24.8161 20.7679 24.4619 20.3309 24.4619H15.9136C15.4766 24.4619 15.1226 24.8161 15.1226 25.2529V35.7365C15.1226 36.1735 15.4766 36.5275 15.9136 36.5275Z" fill="black"></path><path d="M8.30606 30.6157L8.29362 35.7343C8.29256 36.1713 8.64588 36.5262 9.08263 36.5273H9.08463C9.52064 36.5273 9.87459 36.1744 9.87565 35.7383L9.8882 30.6167L13.0819 25.7108C13.3203 25.3446 13.2167 24.8546 12.8506 24.6162C12.4845 24.3781 11.9944 24.4814 11.7562 24.8476L9.09676 28.9327L6.41153 24.8201C6.17243 24.4542 5.68253 24.3514 5.31666 24.5903C4.95089 24.8291 4.84795 25.3193 5.08673 25.685L8.30606 30.6157Z" fill="black"></path><path d="M35.5973 36.5275C36.0342 36.5275 36.3883 36.1734 36.3883 35.7365V31.5008C36.4194 31.5007 36.451 31.5005 36.4832 31.5003L40.6715 36.2591C40.8278 36.4368 41.0462 36.5275 41.2656 36.5275C41.4512 36.5275 41.6376 36.4626 41.7879 36.3303C42.1158 36.0418 42.1476 35.5418 41.8591 35.2139L38.5799 31.4881C40.5138 31.3914 42.0563 29.8538 42.0563 27.9775C42.0563 26.039 40.41 24.4619 38.3865 24.4619H35.6008C35.6001 24.4619 35.5996 24.462 35.599 24.462C35.5983 24.462 35.5978 24.4619 35.5972 24.4619C35.1602 24.4619 34.8062 24.8161 34.8062 25.2529V35.7365C34.8063 36.1735 35.1603 36.5275 35.5973 36.5275ZM38.3865 26.0439C39.5181 26.0439 40.4743 26.9294 40.4743 27.9775C40.4743 29.0257 39.5182 29.9111 38.3865 29.9111C37.933 29.9111 37.0535 29.9153 36.4065 29.9187C36.4031 29.28 36.3987 28.4176 36.3987 27.9775C36.3987 27.6059 36.3963 26.7084 36.3943 26.0439H38.3865Z" fill="black"></path><path d="M42.7289 3.4945H37.4045V3.41191C37.4045 1.53056 35.8739 0 33.9926 0C32.1112 0 30.5806 1.53056 30.5806 3.41191V3.4945H22.5445C22.1076 3.4945 21.7535 3.84855 21.7535 4.28551C21.7535 4.72247 22.1076 5.07653 22.5445 5.07653H30.5806V6.90652C30.5806 6.93425 30.582 6.96157 30.5827 6.9891H29.6226C29.1856 6.9891 28.8316 7.34316 28.8316 7.78011C28.8316 8.21707 29.1856 8.57113 29.6226 8.57113H31.0158C31.6007 9.61263 32.7155 10.3183 33.9926 10.3183C35.2697 10.3183 36.3845 9.61263 36.9692 8.57113H38.3589C38.7958 8.57113 39.1499 8.21707 39.1499 7.78011C39.1499 7.34316 38.7958 6.9891 38.3589 6.9891H37.4023C37.4029 6.96157 37.4044 6.93415 37.4044 6.90652V5.07653H42.7288C44.2195 5.07653 45.4322 6.28931 45.4322 7.78001L45.4318 13.9782H1.58203V7.78001C1.58203 6.28931 2.79482 5.07653 4.28541 5.07653H9.61337V6.90652C9.61337 6.93425 9.61485 6.96157 9.61548 6.9891H8.6554C8.21855 6.9891 7.86438 7.34316 7.86438 7.78011C7.86438 8.21707 8.21855 8.57113 8.6554 8.57113H10.0486C10.6335 9.61263 11.7483 10.3183 13.0253 10.3183C14.3023 10.3183 15.4172 9.61263 16.0019 8.57113H17.3916C17.8284 8.57113 18.1826 8.21707 18.1826 7.78011C18.1826 7.34316 17.8284 6.9891 17.3916 6.9891H16.435C16.4356 6.96157 16.4371 6.93415 16.4371 6.90652V5.07653H18.8529C19.2897 5.07653 19.6439 4.72247 19.6439 4.28551C19.6439 3.84855 19.2897 3.4945 18.8529 3.4945H16.4371V3.41191C16.4371 1.53056 14.9065 0 13.0252 0C11.1438 0 9.61327 1.53056 9.61327 3.41191V3.4945H4.28541C1.92238 3.4945 0 5.41698 0 7.78001V49.7146C0 52.0776 1.92248 54.0001 4.28541 54.0001H42.7262C45.0893 54.0001 47.0117 52.0776 47.0117 49.7146L47.0143 7.78001C47.0144 5.41687 45.0919 3.4945 42.7289 3.4945ZM35.8225 6.90641C35.8225 7.91532 35.0016 8.73629 33.9926 8.73629C32.9836 8.73629 32.1626 7.91543 32.1626 6.90641V3.41191C32.1626 2.403 32.9835 1.58203 33.9926 1.58203C35.0015 1.58203 35.8225 2.40289 35.8225 3.41191V6.90641ZM11.1955 3.41191C11.1955 2.403 12.0164 1.58203 13.0254 1.58203C14.0344 1.58203 14.8553 2.40289 14.8553 3.41191V6.90652C14.8553 7.91543 14.0344 8.7364 13.0254 8.7364C12.0164 8.7364 11.1955 7.91554 11.1955 6.90652V3.41191ZM45.4304 37.7834C45.4304 38.0077 45.403 38.2277 45.3504 38.4399H39.2326C36.8696 38.4399 34.9471 40.3624 34.9471 42.7254V48.8435C34.7349 48.8963 34.5149 48.9235 34.2905 48.9235H10.5011C10.0642 48.9235 9.71009 49.2775 9.71009 49.7145C9.71009 50.1514 10.0642 50.5055 10.5011 50.5055H34.2905C35.4353 50.5055 36.5114 50.0597 37.3209 49.2503L45.4297 41.1412V49.7146C45.4297 51.2053 44.2169 52.4181 42.7262 52.4181H4.28541C2.79471 52.4181 1.58203 51.2053 1.58203 49.7146V49.5422C2.3201 50.1439 3.2612 50.5055 4.28541 50.5055H6.8097C7.24655 50.5055 7.60071 50.1514 7.60071 49.7145C7.60071 49.2775 7.24655 48.9235 6.8097 48.9235H4.28541C2.79471 48.9235 1.58203 47.7107 1.58203 46.22V19.0547H45.4316L45.4304 37.7834ZM44.3116 40.0219L36.5291 47.8046V42.7254C36.5291 41.2347 37.7419 40.0219 39.2326 40.0219H44.3116ZM45.4317 17.4727H1.58203V15.5601H45.4318L45.4317 17.4727Z" fill="black"></path></g></svg>